<?xml version="1.0" encoding="UTF-8"?>
<svg width="1200pt" height="1200pt" version="1.1" viewBox="0 0 1200 1200" xmlns="http://www.w3.org/2000/svg">
 <g>
  <path d="m0.03125 521.86v136h94.109l137.84 455.54h736.05l137.84-455.54h94.109v-136zm461.99 433.58c0 25.414-20.617 45.996-46.035 45.996-25.379 0-45.953-20.582-45.953-45.996l0.003906-275.96c0-25.414 20.543-45.996 45.953-45.996 25.414 0 46.035 20.582 46.035 45.996zm183.97 0c0 25.414-20.582 45.996-45.992 45.996-25.414 0-45.992-20.582-45.992-45.996v-275.96c0-25.414 20.578-45.996 45.992-45.996 25.41 0 45.992 20.582 45.992 45.996zm183.98 0c0 25.414-20.574 45.996-45.953 45.996-25.449 0-46.035-20.582-46.035-45.996v-275.96c0-25.414 20.582-45.996 46.035-45.996 25.379 0 45.953 20.582 45.953 45.996z"/>
  <path d="m392.81 429.5 150.65-238.03-0.22266-0.14844c6.8867-10.617 10.84-23.215 10.84-36.766 0-37.574-30.465-67.965-67.965-67.965-26.145 0-48.777 14.648-60.203 36.324l-193.93 306.29 0.44141 0.29297z"/>
  <path d="m656.61 191.47 150.65 238.03h160.39l0.44141-0.29297-193.94-306.29c-11.387-21.68-34.055-36.324-60.207-36.324-37.5 0-67.961 30.395-67.961 67.965 0 13.551 3.957 26.148 10.797 36.766z"/>
 </g>
</svg>
