<?xml version="1.0" encoding="UTF-8"?>
<svg width="1200pt" height="1200pt" version="1.1" viewBox="0 0 1200 1200" xmlns="http://www.w3.org/2000/svg">
 <path d="m1041.2 765.24c43.68-51.84 116.76-204 127.44-224.28v0.003907c1.5469-5.625 1.875-11.52 0.96094-17.281 0 0-5.5195-1.8008-6.8398 0-9.7188 9.8398-64.922 78.121-129.36 148.44v-126.84c0.55469-2.8516-0.19141-5.8008-2.0391-8.043-1.8477-2.2422-4.5977-3.5391-7.5039-3.5391-2.9023 0-5.6562 1.2969-7.5 3.5391-1.8477 2.2422-2.5938 5.1914-2.0391 8.043v146.88c-35.117 38.633-72.93 74.723-113.16 108-3 2.6406-9.3594 0-14.16 0v-35.281-12c0-19.078 0-38.16 0.96094-57.238 0.46875-4.0586-0.027344-8.168-1.4414-12v-24c10.199-19.441 20.039-21.961 19.68-26.52 0-6.3594-13.32-10.922-18-12-0.60156 0-1.1992-0.71875-1.6797-1.9219v-276c14.805-21.906 32.078-42.039 51.48-60 2.7617-2.3984 11.16-11.281 0-9.8398-17.676 6.5117-34.844 14.336-51.359 23.402v-242.64c0-19.078-4.3203-24-9.6016-24-5.7422 0.50781-10.016 5.5273-9.5977 11.277v1.4414c-7.4141 4.3516-15.539 7.3594-24 8.8789-21.719 1.5586-31.078-14.398-53.16 4.5586-32.762 28.078-41.039-10.922-84 26.641-4.8008 4.1992 9.9609 22.078 13.078 42v0.003906c0.71484 21.414-1.3438 42.832-6.1172 63.719 37.559-20.039 51.238 7.1992 85.199-24.719 14.52-13.68 52.68 1.3203 69 8.8789v133.92c-39.324 20.672-75.656 46.59-108 77.043-74.398 68.52-158.64 171.48-174.84 182.64v-0.003906c-7.7461 4.1875-16.398 6.4141-25.199 6.4805-1.1992 0-0.83984-68.039-2.7617-85.078-3.4805-30.238 10.68-41.039 23.16-60 2.3984-3.6016 5.5195-16.801 2.2812-16.68-8.7617 0-18.48 12-26.039 0h-0.003906c-3.9453-8.3945-5.8359-17.609-5.5195-26.883-0.83984-13.559 0-31.441 0-56.039 0-6.4805 29.398 1.0781 37.32-2.8789 5.5195-2.7617 0-10.559-2.0391-11.281-5.1602-2.0391-24 1.1992-29.281-1.1992-6.9609-3.3594-5.0391-10.199-6-15.719-2.6406-15.719 3.1211-120 2.5195-123.84-0.96094-6.1211 1.3203-10.801-3.9609-12s-4.6797 27.48-10.199 27.48c-43.078 0.23828-22.918 27.238-94.918 34.438-8.8789 0.96094 5.6406 8.5195 3 26.16-1.9219 13.32-6.8398 26.039 2.2812 26.281 50.762 1.0781 56.641-19.199 77.762-17.762 2.2812 0 5.3984-1.5586 6 12 0 7.9219 2.2812 39.602-4.6797 41.52-14.16 3.9609-27.602-1.6797-41.16 4.8008-3.7188 1.6797-0.60156 10.68 3.1211 10.32 6.4805-0.60156 38.039-1.5586 39.121 2.2812 3.2383 10.68 7.3203 93.121-6.2383 100.56-15.238 14.762-101.04 70.801-108 169.92-6 91.801 47.039 136.08 46.68 142.8l-0.007813-0.003906c-14.922 16.945-27.074 36.141-36 56.883-26.281 59.039-3.2383 128.52 0.60156 129 18 2.5195 36 7.9219 54.238 10.801 19.801 3.1211 42.84 15.121 38.641 41.52 0 3-12-3.4805-14.398-1.8008-10.934-6.2656-22.191-11.953-33.723-17.039-12-2.5195-205.8-7.5586-226.08-10.801-10.441-1.6797-13.199-9.6016-7.5586-19.801 0.58594-5.4258-0.19922-10.914-2.2812-15.961-6.3438-14.816-13.637-29.207-21.84-43.078-4.2734-5.5234-6.7422-12.227-7.082-19.199 0-10.441 9.9609-4.1992 10.68-3.8398 9.2383 4.5586 105.12 60 148.08 77.52 1.5586 0.60156 7.4414-13.078 2.8789-15.48h0.003906c-114.62-59.867-222.48-131.88-321.72-214.8-4.5195-2.2461-9.3906-3.707-14.398-4.3203 0 3.4805-2.6406 8.8789-1.5586 10.078 16.922 18.238 61.801 54.84 162.96 132l-0.003907 0.003907c5.2578 3.5234 8.6914 9.1914 9.3828 15.48 0.69531 6.293-1.4219 12.57-5.7812 17.156-3.0859 6.3008-3.4336 13.598-0.96094 20.16 4.1562 9.0586 8.9688 17.805 14.398 26.16 10.68 18.48 24 24 18.602 30.238-5.3984 6.2383-58.199-12-72-15.961-13.801-3.9609-24-13.441-27.48 0.96094v0.003907c-0.33203 6.5664 2.6953 12.848 8.0391 16.68 66.508 32.012 118.73 87.617 146.52 156 12.25 24.641 28.469 47.098 48 66.48 6 6.3594 595.56 0 656.4 0h0.003906c7.3008 0.76562 14.664-0.72266 21.102-4.2617 6.4336-3.5391 11.633-8.9609 14.898-15.539 13.922-27.602 49.078-107.16 56.16-116.04 4.4414-5.6406 14.879-4.1992 20.281-9.3594 37.922-37.922 60.961-183.96 60-193.56-6 0.83984-81.961 22.68-103.8 27.359-9.9609 2.0391-24-8.0391-22.801-16.078 1.5586-19.078 1.6797-38.16 2.8789-57.238v-0.007812c0.0625-5.9531 1.4531-11.816 4.0781-17.16zm-187.8-660h0.003906c0.019532-18.539 4.8125-36.766 13.918-52.918v108c-8.043-17.539-12.762-36.418-13.918-55.68zm-29.52 396h0.003906c1.7969-44.621 14.484-88.125 36.957-126.72 0.83984-1.5586 4.1992 2.8789 6.3594 7.9219v218.52c-3.8398 8.1602-12 16.32-26.281 0-16.676-20.52-18.117-72.961-17.035-100.56zm40.082 216.84m2.2812 243.72c-1.4414 8.1602-2.5195 43.68-8.1602 47.281-12 7.9219-258.6 2.3984-283.68 3.1211-18.359 1.1992-17.039-40.801-17.52-48.961 0-5.0391 25.32-1.9219 19.32-12h-0.003907c-9.3633-12.367-15.953-26.613-19.316-41.758-3.3086-13.715-4.9609-27.773-4.9219-41.879 1.75-20.246 5.1641-40.316 10.199-60 11.16-52.922 63.719-81.84 65.039-87.48 0-2.5195-4.9219-3.3594-7.5586-3.2383-10.68 0-45 12-55.559 11.281-8.3984 0-9.6016-93.359-3.8398-116.04v-0.003906c5.375-15.02 14.121-28.605 25.559-39.723 25.199-24 127.56-136.8 135.84-144-21.84 37.441-48.961 90.719-48 122.28 2.0391 101.64 75.48 105.96 54.238 134.28h0.003906c-23.523 38.598-42.301 79.898-55.922 123-25.559 110.04 1.0781 158.52 12.84 180 11.762 21.48 160.44-39.121 176.4-41.039 2.7617-0.36328 6.1211 10.438 5.4023 14.879zm-5.043-109.8c-7.3203 5.1602-16.441-56.16-14.398-72 6-43.559 13.441-57.238 16.32-61.078 1.4414 1.0781 2.8789 2.0391 4.1992 3.2383v117.84 4.4414c-1.0625 3.1719-3.2383 5.8555-6.1211 7.5586zm150.96-45.602c-0.55078 15.129-3.0117 30.129-7.3203 44.641-1.9219 5.5195-25.078 12-32.281 12-15.238 1.1992-23.16 14.039-27.359 31.32-3.4805 14.52-22.559 35.281-36 34.801-4.875-4.7891-9.4414-9.8789-13.68-15.238-3.5508-5.3516-6.7578-10.922-9.5977-16.684v-48c66.48-38.762 89.762-39.359 121.92-60h-0.003906c2.75 5.3086 4.2266 11.184 4.3203 17.16zm-882.24-75c51.238-19.078 243.84-168 282-213 5.5195-6.4805 9.1211 0 8.8789 0-80.039 124.8-111.84 301.8-129.48 301.8-1.4414 0-77.879-56.762-160.44-82.922-0.95703-0.47656-1.918-5.2773-0.95703-5.8789z" fill="#585858"/>
</svg>
