<?xml version="1.0" encoding="UTF-8"?>
<svg width="1200pt" height="1200pt" version="1.1" viewBox="0 0 1200 1200" xmlns="http://www.w3.org/2000/svg">
 <g>
  <rect width="1200" height="1200" fill="#fff"/>
  <path d="m312.53 777.07 277.8 160.44c0.22656 0.15234 0.45312 0.15234 0.67969 0.30078 1.0586 0.52734 2.1172 0.98437 3.25 1.3594 0.37891 0.15234 0.75391 0.22656 1.1328 0.37891 1.5117 0.30469 3.0234 0.53125 4.6094 0.53125s3.0977-0.22656 4.5352-0.60547c0.37891-0.074219 0.75391-0.22656 1.1328-0.37891 1.1328-0.37891 2.2656-0.83203 3.3242-1.3594 0.22656-0.074219 0.45312-0.15234 0.67969-0.30078l277.88-160.44c5.9688-3.4023 9.5977-9.8242 9.5977-16.703l0.003907-320.73c0-0.15234-0.074219-0.30078-0.074219-0.52734-0.074219-1.5117-0.22656-3.0234-0.60547-4.457 0-0.074219-0.074219-0.074219-0.074219-0.15234-0.37891-1.3594-0.98438-2.7188-1.6641-4.0039-0.22656-0.37891-0.45312-0.75391-0.67969-1.0586-0.60547-0.98438-1.2852-1.8125-2.0391-2.7188-0.30078-0.30078-0.52734-0.60547-0.83203-0.90625-1.0586-1.0586-2.2656-2.0391-3.6289-2.7969l-277.95-160.44c-5.8945-3.4766-13.301-3.4766-19.27 0l-277.8 160.44c-1.3594 0.75391-2.5703 1.7383-3.6289 2.7969-0.30078 0.30078-0.60547 0.60547-0.83203 0.90625-0.75391 0.83203-1.4375 1.7383-2.0391 2.6445-0.22656 0.37891-0.45312 0.75391-0.67969 1.1328-0.67969 1.2852-1.2852 2.5703-1.6641 4.0039 0 0.074219-0.074219 0.074219-0.074219 0.15234-0.37891 1.4375-0.52734 2.9492-0.60547 4.457 0 0.15234-0.074218 0.30078-0.074218 0.52734v320.8c0 6.957 3.6289 13.305 9.5977 16.707zm287.47-475.65 239.34 138.22-239.34 138.15-239.33-138.22zm-258.61 171.55 239.34 138.22v276.36l-239.34-138.21z"/>
 </g>
</svg>
